<svg width="24" height="24" viewBox="0 0 24 24" fill="none" xmlns="http://www.w3.org/2000/svg">
<g clip-path="url(#clip0_365_2275)">
<path fill-rule="evenodd" clip-rule="evenodd" d="M19.2396 7.10534C19.3122 7.08221 19.4077 7.12847 19.5032 7.2557C19.5032 7.2557 19.5032 7.2557 23.8215 11.5198C24.0737 11.7743 24.0737 12.1598 23.8215 12.3487C23.8215 12.3487 23.8215 12.3487 19.5032 16.6784C19.4077 16.8056 19.3122 16.8364 19.2396 16.7979C19.167 16.7593 19.1211 16.6475 19.1211 16.4856V7.38293C19.1211 7.22486 19.167 7.12847 19.2396 7.10534Z" fill="#ED1C24"/>
<path fill-rule="evenodd" clip-rule="evenodd" d="M11.8526 0H12.1583L12.4526 0.123374C12.4526 0.123374 12.4526 0.123374 16.8969 4.58024C17.088 4.8347 17.023 5.02747 16.7059 5.02747C16.7059 5.02747 16.7059 5.02747 14.8639 5.02747C14.5467 5.02747 14.2945 5.28193 14.2945 5.60193C14.2945 5.60193 14.2945 5.60193 14.2945 8.90988C14.2945 9.22988 14.0385 9.48434 13.6563 9.48434C13.6563 9.48434 13.6563 9.48434 10.4195 9.48434C10.1024 9.48434 9.84633 9.22988 9.84633 8.90988C9.84633 8.90988 9.84633 8.90988 9.84633 5.60193C9.84633 5.28193 9.59411 5.02747 9.27311 5.02747H7.30505C6.98787 5.02747 6.92291 4.8347 7.11398 4.58024C7.11398 4.58024 7.11398 4.58024 11.5622 0.123374L11.8526 0Z" fill="#ED1C24"/>
<path fill-rule="evenodd" clip-rule="evenodd" d="M4.88956 7.00918C4.96982 7.04773 5.01949 7.15954 5.01949 7.32147V16.613C5.01949 16.775 4.96982 16.8714 4.88956 16.9022C4.81314 16.933 4.70231 16.9022 4.57238 16.8058C4.57238 16.8058 4.57238 16.8058 0.189163 12.3489C-0.0630542 12.16 -0.0630542 11.7745 0.189163 11.52C0.189163 11.52 0.189163 11.52 4.57238 7.1287C4.70231 7.00147 4.81314 6.97063 4.88956 7.00918Z" fill="#ED1C24"/>
<path fill-rule="evenodd" clip-rule="evenodd" d="M10.419 14.3232C10.419 14.3232 10.419 14.3232 13.6558 14.3232C14.0379 14.3232 14.294 14.5777 14.294 14.8977C14.294 14.8977 14.294 14.8977 14.294 18.3984C14.294 18.7801 14.5462 19.0346 14.8634 19.0346H16.5792C16.8964 19.0346 17.0225 19.2235 16.7703 19.4163C16.7703 19.4163 16.7703 19.4163 12.452 23.8076C12.3221 23.9348 12.1654 24.0003 12.0049 24.0003C11.8482 24.0003 11.6877 23.9348 11.5616 23.8076C11.5616 23.8076 11.5616 23.8076 7.24338 19.4163C6.98734 19.2235 7.11345 19.0346 7.43063 19.0346C7.43063 19.0346 7.43063 19.0346 9.27258 19.0346C9.59358 19.0346 9.8458 18.7801 9.8458 18.3984C9.8458 18.3984 9.8458 18.3984 9.8458 14.8977C9.8458 14.5777 10.1018 14.3232 10.419 14.3232Z" fill="#ED1C24"/>
</g>
<defs>
<clipPath id="clip0_365_2275">
<rect width="24" height="24" fill="white"/>
</clipPath>
</defs>
</svg>
