<svg width="100" height="100" viewBox="0 0 100 100" fill="none" xmlns="http://www.w3.org/2000/svg">
<path d="M66.6663 91.6663C64.3652 91.6663 62.4997 89.8009 62.4997 87.4997C62.4997 85.1985 64.3652 83.333 66.6663 83.333C68.9675 83.333 70.833 85.1985 70.833 87.4997C70.833 89.8009 68.9675 91.6663 66.6663 91.6663Z" stroke="#626262" stroke-width="4" stroke-linecap="round" stroke-linejoin="round"/>
<path d="M20.8333 91.6663C18.5321 91.6663 16.6667 89.8009 16.6667 87.4997C16.6667 85.1985 18.5321 83.333 20.8333 83.333C23.1345 83.333 25 85.1985 25 87.4997C25 89.8009 23.1345 91.6663 20.8333 91.6663Z" stroke="#626262" stroke-width="4" stroke-linecap="round" stroke-linejoin="round"/>
<path d="M91.458 8.54199H83.1247L72.0413 60.292C71.6348 62.1872 70.5802 63.8815 69.0592 65.0831C67.5382 66.2847 65.6459 66.9184 63.708 66.8753H22.958C21.0614 66.8723 19.2227 66.2224 17.7454 65.033C16.2681 63.8436 15.2408 62.1859 14.833 60.3337L7.95801 29.3753H78.6663" stroke="#626262" stroke-width="4" stroke-linecap="round" stroke-linejoin="round"/>
</svg>
