<svg width="24" height="24" viewBox="0 0 24 24" fill="none" xmlns="http://www.w3.org/2000/svg">
<g clip-path="url(#clip0_978_5584)">
<path d="M23.0114 12.9019C23.3109 13.3003 23.4886 13.7948 23.4886 14.3306C23.4886 14.7361 23.3868 15.1181 23.2068 15.4523C23.0357 15.7725 22.7925 16.0491 22.5 16.2609C22.8103 16.6726 22.9778 17.1742 22.9771 17.6897C22.9771 18.4828 22.5876 19.1869 21.9895 19.6205C22.2992 20.032 22.4664 20.5332 22.4657 21.0483C22.4657 22.3622 21.397 23.4309 20.0836 23.4309H12.5826C11.347 23.4309 10.1343 23.2111 8.97746 22.7775L5.22559 21.3708V11.4544H5.42668C8.24762 8.47406 11.3118 5.08687 11.7754 4.34531V1.57969C11.7754 1.02234 12.2287 0.569061 12.7861 0.569061C15.0848 0.569061 16.9551 2.43891 16.9551 4.73766V5.985L16.2009 8.5889H21.6173C22.9312 8.5889 24 9.65765 24 10.9716C24 11.7647 23.61 12.4683 23.0114 12.9019Z" fill="#FFBD86"/>
<path d="M21.9895 19.6205C22.2992 20.032 22.4664 20.5332 22.4657 21.0483C22.4657 22.3622 21.397 23.4309 20.0836 23.4309H12.5826C11.347 23.4309 10.1343 23.2111 8.97746 22.7775L5.22559 21.3708V15.4523H23.2068C23.0357 15.7725 22.7925 16.0491 22.5 16.2609C22.8103 16.6726 22.9778 17.1742 22.9771 17.6897C22.9771 18.4828 22.5876 19.1869 21.9895 19.6205Z" fill="#F6A96C"/>
<path d="M0 8.12531H6.63187V22.9716H0V8.12531Z" fill="#006EFF"/>
<path d="M0 15.4523H6.63187V22.9716H0V15.4523Z" fill="#005FE4"/>
</g>
<defs>
<clipPath id="clip0_978_5584">
<rect width="24" height="24" fill="white"/>
</clipPath>
</defs>
</svg>
