<svg width="24" height="24" viewBox="0 0 24 24" fill="none" xmlns="http://www.w3.org/2000/svg">
<g clip-path="url(#clip0_1259_4464)">
<path d="M17 0H7C5.346 0 4 1.346 4 3V21C4 22.654 5.346 24 7 24H17C18.654 24 20 22.654 20 21V3C20 1.346 18.654 0 17 0Z" fill="#607D8B"/>
<path d="M7 2H17C17.551 2 18 2.449 18 3V19H6V3C6 2.449 6.449 2 7 2Z" fill="#FAFAFA"/>
<path d="M15.44 5H8.56C7.7 5 7 5.7 7 6.56V14.441C7 15.301 7.7 16 8.56 16H13.431C13.883 16 14.308 15.824 14.629 15.504L16.504 13.629C16.819 13.313 17 12.877 17 12.43V6.56C17 5.7 16.3 5 15.44 5ZM14.594 9.219L11.816 12.5C11.7456 12.5831 11.658 12.65 11.5592 12.6959C11.4605 12.7418 11.3529 12.7657 11.244 12.766C10.99 12.745 10.811 12.667 10.668 12.497L9.402 10.981C9.27443 10.8282 9.21277 10.6311 9.23059 10.4328C9.2484 10.2346 9.34423 10.0516 9.497 9.924C9.57264 9.86083 9.65998 9.81319 9.75404 9.78377C9.8481 9.75436 9.94702 9.74377 10.0452 9.75259C10.2434 9.7704 10.4264 9.86624 10.554 10.019L11.248 10.851L13.45 8.25C13.5125 8.17127 13.5901 8.10589 13.6784 8.05776C13.7666 8.00963 13.8636 7.97973 13.9637 7.96984C14.0637 7.95994 14.1647 7.97025 14.2606 8.00015C14.3566 8.03005 14.4456 8.07893 14.5223 8.1439C14.599 8.20886 14.6618 8.28858 14.7071 8.37831C14.7524 8.46804 14.7792 8.56596 14.7858 8.66625C14.7925 8.76654 14.779 8.86715 14.746 8.96211C14.7131 9.05706 14.6614 9.14442 14.594 9.219Z" fill="#2196F3"/>
</g>
<defs>
<clipPath id="clip0_1259_4464">
<rect width="24" height="24" fill="white"/>
</clipPath>
</defs>
</svg>
