<svg width="24" height="24" viewBox="0 0 24 24" fill="none" xmlns="http://www.w3.org/2000/svg">
<g clip-path="url(#clip0_1259_153)">
<path d="M12 24C18.6274 24 24 18.6274 24 12C24 5.37258 18.6274 0 12 0C5.37258 0 0 5.37258 0 12C0 18.6274 5.37258 24 12 24Z" fill="#FFD54F"/>
<path d="M9.25 9C9.05109 9 8.86032 8.92098 8.71967 8.78033C8.57902 8.63968 8.5 8.44891 8.5 8.25C8.48848 7.99252 8.37809 7.74941 8.19182 7.57128C8.00554 7.39315 7.75774 7.29373 7.5 7.29373C7.24226 7.29373 6.99446 7.39315 6.80818 7.57128C6.62191 7.74941 6.51152 7.99252 6.5 8.25C6.5 8.44891 6.42098 8.63968 6.28033 8.78033C6.13968 8.92098 5.94891 9 5.75 9C5.55109 9 5.36032 8.92098 5.21967 8.78033C5.07902 8.63968 5 8.44891 5 8.25C5 6.872 6.121 5.75 7.5 5.75C8.879 5.75 10 6.872 10 8.25C10 8.44891 9.92098 8.63968 9.78033 8.78033C9.63968 8.92098 9.44891 9 9.25 9ZM18.25 9C18.0511 9 17.8603 8.92098 17.7197 8.78033C17.579 8.63968 17.5 8.44891 17.5 8.25C17.4885 7.99252 17.3781 7.74941 17.1918 7.57128C17.0055 7.39315 16.7577 7.29373 16.5 7.29373C16.2423 7.29373 15.9945 7.39315 15.8082 7.57128C15.6219 7.74941 15.5115 7.99252 15.5 8.25C15.5 8.44891 15.421 8.63968 15.2803 8.78033C15.1397 8.92098 14.9489 9 14.75 9C14.5511 9 14.3603 8.92098 14.2197 8.78033C14.079 8.63968 14 8.44891 14 8.25C14 6.872 15.121 5.75 16.5 5.75C17.879 5.75 19 6.872 19 8.25C19 8.44891 18.921 8.63968 18.7803 8.78033C18.6397 8.92098 18.4489 9 18.25 9ZM12 13.02C11.0194 13.0217 10.0482 12.8296 9.14211 12.4548C8.236 12.08 7.41287 11.5299 6.72 10.836C6.65033 10.7663 6.59507 10.6836 6.55737 10.5926C6.51967 10.5016 6.50026 10.404 6.50026 10.3055C6.50026 10.207 6.51967 10.1094 6.55737 10.0184C6.59507 9.92737 6.65033 9.84467 6.72 9.775C6.78967 9.70533 6.87237 9.65007 6.9634 9.61237C7.05442 9.57467 7.15198 9.55526 7.2505 9.55526C7.34902 9.55526 7.44658 9.57467 7.5376 9.61237C7.62863 9.65007 7.71133 9.70533 7.781 9.775C8.90108 10.8922 10.4185 11.5196 12.0005 11.5196C13.5825 11.5196 15.0999 10.8922 16.22 9.775C16.3607 9.6343 16.5515 9.55526 16.7505 9.55526C16.9495 9.55526 17.1403 9.6343 17.281 9.775C17.4217 9.9157 17.5007 10.1065 17.5007 10.3055C17.5007 10.5045 17.4217 10.6953 17.281 10.836C16.5879 11.5298 15.7646 12.0799 14.8583 12.4547C13.952 12.8294 12.9807 13.0216 12 13.02Z" fill="#6D4C41"/>
<path d="M11.0738 18.006L10.6268 15.014C10.6268 15.014 9.77985 14.52 9.07285 15.227C8.36585 15.934 8.89585 17.525 8.89585 17.525L5.24285 13.872C5.05534 13.6844 4.80102 13.5791 4.53585 13.5791C4.27067 13.5791 4.01636 13.6844 3.82885 13.872C3.64134 14.0595 3.536 14.3138 3.536 14.579C3.536 14.8441 3.64134 15.0984 3.82885 15.286L3.59285 15.05C3.5 14.9571 3.38978 14.8835 3.26847 14.8332C3.14717 14.783 3.01715 14.7571 2.88585 14.7571C2.75455 14.7571 2.62453 14.783 2.50322 14.8332C2.38192 14.8835 2.27169 14.9571 2.17885 15.05C2.086 15.1428 2.01236 15.253 1.96211 15.3743C1.91186 15.4956 1.886 15.6256 1.886 15.757C1.886 16.0221 1.99134 16.2764 2.17885 16.464L2.64985 16.935C2.46125 16.7528 2.20864 16.652 1.94645 16.6543C1.68425 16.6566 1.43344 16.7617 1.24803 16.9471C1.06262 17.1325 0.957453 17.3834 0.955175 17.6456C0.952896 17.9077 1.05369 18.1603 1.23585 18.349L1.70685 18.82C1.614 18.7271 1.50378 18.6535 1.38247 18.6032C1.26117 18.553 1.13115 18.5271 0.999849 18.5271C0.868547 18.5271 0.738531 18.553 0.617223 18.6032C0.495916 18.6535 0.385694 18.7271 0.292849 18.82C0.200004 18.9128 0.126356 19.023 0.076109 19.1443C0.0258619 19.2656 0 19.3956 0 19.527C0 19.6583 0.0258619 19.7883 0.076109 19.9096C0.126356 20.0309 0.200004 20.1411 0.292849 20.234L2.88585 22.827C3.25729 23.1984 3.69825 23.4931 4.18357 23.6941C4.66888 23.8951 5.18904 23.9986 5.71435 23.9986C6.23965 23.9986 6.75981 23.8951 7.24513 23.6941C7.73045 23.4931 8.17141 23.1984 8.54285 22.827L9.94585 21.424C10.3881 20.9822 10.7206 20.4428 10.9165 19.8491C11.1124 19.2555 11.1663 18.6242 11.0738 18.006ZM12.9258 18.006L13.3728 15.014C13.3728 15.014 14.2198 14.52 14.9268 15.227C15.6338 15.934 15.1038 17.525 15.1038 17.525L18.7568 13.872C18.8497 13.7791 18.9599 13.7055 19.0812 13.6552C19.2025 13.605 19.3325 13.5791 19.4639 13.5791C19.5952 13.5791 19.7252 13.605 19.8465 13.6552C19.9678 13.7055 20.078 13.7791 20.1708 13.872C20.2637 13.9648 20.3373 14.075 20.3876 14.1963C20.4378 14.3176 20.4637 14.4476 20.4637 14.579C20.4637 14.7103 20.4378 14.8403 20.3876 14.9616C20.3373 15.0829 20.2637 15.1931 20.1708 15.286L20.4068 15.05C20.5944 14.8624 20.8487 14.7571 21.1138 14.7571C21.379 14.7571 21.6333 14.8624 21.8208 15.05C22.0084 15.2375 22.1137 15.4918 22.1137 15.757C22.1137 16.0221 22.0084 16.2764 21.8208 16.464L21.3498 16.935C21.5385 16.7528 21.7911 16.652 22.0533 16.6543C22.3154 16.6566 22.5663 16.7617 22.7517 16.9471C22.9371 17.1325 23.0422 17.3834 23.0445 17.6456C23.0468 17.9077 22.946 18.1603 22.7638 18.349L22.2928 18.82C22.3857 18.7271 22.4959 18.6535 22.6172 18.6032C22.7385 18.553 22.8685 18.5271 22.9998 18.5271C23.1312 18.5271 23.2612 18.553 23.3825 18.6032C23.5038 18.6535 23.614 18.7271 23.7069 18.82C23.7997 18.9128 23.8733 19.023 23.9236 19.1443C23.9738 19.2656 23.9997 19.3956 23.9997 19.527C23.9997 19.6583 23.9738 19.7883 23.9236 19.9096C23.8733 20.0309 23.7997 20.1411 23.7069 20.234L21.1138 22.827C20.7424 23.1984 20.3014 23.4931 19.8161 23.6941C19.3308 23.8951 18.8107 23.9986 18.2853 23.9986C17.76 23.9986 17.2399 23.8951 16.7546 23.6941C16.2693 23.4931 15.8283 23.1984 15.4568 22.827L14.0538 21.424C13.6116 20.9822 13.2791 20.4428 13.0832 19.8491C12.8873 19.2555 12.8334 18.6242 12.9258 18.006Z" fill="#FFA726"/>
</g>
<defs>
<clipPath id="clip0_1259_153">
<rect width="24" height="24" fill="white"/>
</clipPath>
</defs>
</svg>
