<svg width="16" height="24" viewBox="0 0 16 24" fill="none" xmlns="http://www.w3.org/2000/svg">
<path d="M13 0H3C1.346 0 0 1.346 0 3V21C0 22.654 1.346 24 3 24H13C14.654 24 16 22.654 16 21V3C16 1.346 14.654 0 13 0Z" fill="#607D8B"/>
<path d="M3 2H13C13.551 2 14 2.449 14 3V19H2V3C2 2.449 2.449 2 3 2Z" fill="#FAFAFA"/>
<path d="M11.44 5H4.56C3.7 5 3 5.7 3 6.56V14.441C3 15.301 3.7 16 4.56 16H9.431C9.883 16 10.308 15.824 10.629 15.504L12.504 13.629C12.819 13.313 13 12.877 13 12.43V6.56C13 5.7 12.3 5 11.44 5ZM10.594 9.219L7.816 12.5C7.74561 12.5831 7.658 12.65 7.55924 12.6959C7.46048 12.7418 7.35292 12.7657 7.244 12.766C6.99 12.745 6.811 12.667 6.668 12.497L5.402 10.981C5.27443 10.8282 5.21277 10.6311 5.23059 10.4328C5.2484 10.2346 5.34423 10.0516 5.497 9.924C5.57264 9.86083 5.65998 9.81319 5.75404 9.78377C5.8481 9.75436 5.94702 9.74377 6.04518 9.75259C6.2434 9.7704 6.42643 9.86624 6.554 10.019L7.248 10.851L9.45 8.25C9.51248 8.17127 9.59014 8.10589 9.67838 8.05776C9.76662 8.00963 9.86363 7.97973 9.96365 7.96984C10.0637 7.95994 10.1647 7.97025 10.2606 8.00015C10.3566 8.03005 10.4456 8.07893 10.5223 8.1439C10.599 8.20886 10.6618 8.28858 10.7071 8.37831C10.7524 8.46804 10.7792 8.56596 10.7858 8.66625C10.7925 8.76654 10.779 8.86715 10.746 8.96211C10.7131 9.05706 10.6614 9.14442 10.594 9.219Z" fill="#2196F3"/>
</svg>
