<svg width="24" height="24" viewBox="0 0 24 24" fill="none" xmlns="http://www.w3.org/2000/svg">
<g clip-path="url(#clip0_1259_4525)">
<path d="M12 24C18.6274 24 24 18.6274 24 12C24 5.37258 18.6274 0 12 0C5.37258 0 0 5.37258 0 12C0 18.6274 5.37258 24 12 24Z" fill="#FFD54F"/>
<path d="M12 20.036C10.9725 20.0389 9.95466 19.838 9.0054 19.4447C8.05615 19.0514 7.19437 18.4737 6.47 17.745C6.40033 17.6753 6.34507 17.5926 6.30737 17.5016C6.26967 17.4106 6.25026 17.313 6.25026 17.2145C6.25026 17.116 6.26967 17.0184 6.30737 16.9274C6.34507 16.8364 6.40033 16.7537 6.47 16.684C6.6107 16.5433 6.80152 16.4643 7.0005 16.4643C7.09902 16.4643 7.19658 16.4837 7.2876 16.5214C7.37863 16.5591 7.46133 16.6143 7.531 16.684C8.725 17.878 10.312 18.536 12.001 18.536C13.69 18.536 15.277 17.878 16.471 16.684C16.5407 16.6143 16.6234 16.5591 16.7144 16.5214C16.8054 16.4837 16.903 16.4643 17.0015 16.4643C17.1 16.4643 17.1976 16.4837 17.2886 16.5214C17.3796 16.5591 17.4623 16.6143 17.532 16.684C17.6017 16.7537 17.6569 16.8364 17.6946 16.9274C17.7323 17.0184 17.7517 17.116 17.7517 17.2145C17.7517 17.313 17.7323 17.4106 17.6946 17.5016C17.6569 17.5926 17.6017 17.6753 17.532 17.745C16.807 18.4734 15.9448 19.0509 14.9953 19.4442C14.0458 19.8374 13.0277 20.0385 12 20.036ZM9.25 10H4.75C4.55109 10 4.36032 9.92098 4.21967 9.78033C4.07902 9.63968 4 9.44891 4 9.25C4 9.05109 4.07902 8.86032 4.21967 8.71967C4.36032 8.57902 4.55109 8.5 4.75 8.5H9.25C9.44891 8.5 9.63968 8.57902 9.78033 8.71967C9.92098 8.86032 10 9.05109 10 9.25C10 9.44891 9.92098 9.63968 9.78033 9.78033C9.63968 9.92098 9.44891 10 9.25 10Z" fill="#6D4C41"/>
<path d="M17 11C18.1046 11 19 10.1046 19 9C19 7.89543 18.1046 7 17 7C15.8954 7 15 7.89543 15 9C15 10.1046 15.8954 11 17 11Z" fill="#6D4C41"/>
</g>
<defs>
<clipPath id="clip0_1259_4525">
<rect width="24" height="24" fill="white"/>
</clipPath>
</defs>
</svg>
