<svg width="24" height="24" viewBox="0 0 24 24" fill="none" xmlns="http://www.w3.org/2000/svg">
<g clip-path="url(#clip0_1259_2109)">
<path d="M21.5 24C20.121 24 19 22.878 19 21.5C19 20.122 20.121 19 21.5 19C22.879 19 24 20.122 24 21.5C24 22.878 22.879 24 21.5 24ZM2 24C0.897 24 0 23.159 0 22.125C0 21.894 0.043 21.678 0.133 21.463C0.189483 21.3259 0.285417 21.2088 0.408625 21.1263C0.531833 21.0439 0.676758 20.9999 0.825 21H3.175C3.479 21 3.751 21.183 3.867 21.463C3.957 21.678 4 21.894 4 22.125C4 23.159 3.103 24 2 24Z" fill="#546E7A"/>
<path d="M17.25 22H0.75C0.551088 22 0.360322 21.921 0.21967 21.7803C0.0790176 21.6397 0 21.4489 0 21.25C0 21.0511 0.0790176 20.8603 0.21967 20.7197C0.360322 20.579 0.551088 20.5 0.75 20.5H16.5V18.75C16.5005 18.0208 16.7904 17.3217 17.306 16.806C17.8217 16.2904 18.5208 16.0005 19.25 16H21.25C21.4489 16 21.6397 16.079 21.7803 16.2197C21.921 16.3603 22 16.5511 22 16.75C22 16.9489 21.921 17.1397 21.7803 17.2803C21.6397 17.421 21.4489 17.5 21.25 17.5H19.25C18.561 17.5 18 18.061 18 18.75V21.25C18 21.4489 17.921 21.6397 17.7803 21.7803C17.6397 21.921 17.4489 22 17.25 22Z" fill="#90A4AE"/>
<path d="M21.25 20.25C21.0511 20.25 20.8603 20.171 20.7197 20.0303C20.579 19.8897 20.5 19.6989 20.5 19.5V0.75C20.5 0.551088 20.579 0.360322 20.7197 0.21967C20.8603 0.0790176 21.0511 0 21.25 0C21.4489 0 21.6397 0.0790176 21.7803 0.21967C21.921 0.360322 22 0.551088 22 0.75V19.5C22 19.6989 21.921 19.8897 21.7803 20.0303C21.6397 20.171 21.4489 20.25 21.25 20.25Z" fill="#546E7A"/>
<path d="M9.25 14.042H3.75C3.34 14.042 3 14.382 3 14.792V19.792C3 20.202 3.34 20.542 3.75 20.542H9.25C9.66 20.542 10 20.202 10 19.792V14.792C10 14.382 9.66 14.042 9.25 14.042Z" fill="#FFA726"/>
<path d="M7.25 14.042V16.292C7.25 16.702 6.91 17.042 6.5 17.042C6.09 17.042 5.75 16.702 5.75 16.292V14.042H7.25Z" fill="#795548"/>
<path d="M15.25 14.042H9.75C9.34 14.042 9 14.382 9 14.792V19.792C9 20.202 9.34 20.542 9.75 20.542H15.25C15.66 20.542 16 20.202 16 19.792V14.792C16 14.382 15.66 14.042 15.25 14.042Z" fill="#FFB74D"/>
<path d="M13.25 14.042V16.292C13.25 16.702 12.91 17.042 12.5 17.042C12.09 17.042 11.75 16.702 11.75 16.292V14.042H13.25Z" fill="#795548"/>
<path d="M9.25 7.625H3.75C3.34 7.625 3 7.965 3 8.375V13.375C3 13.785 3.34 14.125 3.75 14.125H9.25C9.66 14.125 10 13.785 10 13.375V8.375C10 7.965 9.66 7.625 9.25 7.625Z" fill="#FFB74D"/>
<path d="M7.25 7.625V9.875C7.25 10.285 6.91 10.625 6.5 10.625C6.09 10.625 5.75 10.285 5.75 9.875V7.625H7.25Z" fill="#795548"/>
<path d="M15.25 7.625H9.75C9.34 7.625 9 7.965 9 8.375V13.375C9 13.785 9.34 14.125 9.75 14.125H15.25C15.66 14.125 16 13.785 16 13.375V8.375C16 7.965 15.66 7.625 15.25 7.625Z" fill="#FFA726"/>
<path d="M13.25 7.625V9.875C13.25 10.285 12.91 10.625 12.5 10.625C12.09 10.625 11.75 10.285 11.75 9.875V7.625H13.25Z" fill="#795548"/>
<path d="M12.25 1.125H6.75C6.34 1.125 6 1.465 6 1.875V6.875C6 7.285 6.34 7.625 6.75 7.625H12.25C12.66 7.625 13 7.285 13 6.875V1.875C13 1.465 12.66 1.125 12.25 1.125Z" fill="#FFCC80"/>
<path d="M10.25 1.125V3.375C10.25 3.785 9.91 4.125 9.5 4.125C9.09 4.125 8.75 3.785 8.75 3.375V1.125H10.25Z" fill="#795548"/>
</g>
<defs>
<clipPath id="clip0_1259_2109">
<rect width="24" height="24" fill="white"/>
</clipPath>
</defs>
</svg>
