<svg width="24" height="24" viewBox="0 0 24 24" fill="none" xmlns="http://www.w3.org/2000/svg">
<g clip-path="url(#clip0_1259_4437)">
<path d="M19 0H18C17.7239 0 17.5 0.223875 17.5 0.500016C17.5 0.776156 17.2761 1.00003 17 1.00003C16.7238 1.00003 16.5 0.776156 16.5 0.500016C16.5 0.223875 16.2761 0 16 0C15.7238 0 15.5 0.223875 15.5 0.500016C15.5 0.776156 15.2761 0.999984 15 0.999984C14.7239 0.999984 14.5 0.776109 14.5 0.499969C14.5 0.223828 14.2762 0 14 0C13.7239 0 13.5 0.223875 13.5 0.500016C13.5 0.776156 13.2761 1.00003 13 1.00003C12.7238 1.00003 12.5 0.776156 12.5 0.500016C12.5 0.223875 12.2761 0 12 0C11.7239 0 11.5 0.223875 11.5 0.500016C11.5 0.776156 11.2761 1.00003 11 1.00003C10.7238 1.00003 10.5 0.776156 10.5 0.500016C10.5 0.223875 10.2761 0 9.99998 0C9.72384 0 9.49997 0.223875 9.49997 0.500016C9.49997 0.776156 9.27614 0.999984 9 0.999984C8.72386 0.999984 8.49998 0.776109 8.49998 0.499969C8.49998 0.223828 8.27616 0 8.00002 0C7.72388 0 7.5 0.223875 7.5 0.500016C7.5 0.776156 7.27612 1.00003 6.99998 1.00003C6.72384 1.00003 6.49997 0.776156 6.49997 0.500016C6.49997 0.223875 6.27614 0 6 0H5.00002C4.72388 0 4.5 0.223875 4.5 0.500016V23.5C4.5 23.7762 4.72388 24 5.00002 24H6C6.27614 24 6.50002 23.7762 6.50002 23.5C6.50002 23.2239 6.72389 23 7.00003 23C7.27617 23 7.50005 23.2239 7.50005 23.5C7.50005 23.7762 7.72388 24 8.00002 24C8.27616 24 8.50003 23.7761 8.50003 23.5C8.50003 23.2238 8.72391 23 9.00005 23C9.27619 23 9.50006 23.2238 9.50006 23.5C9.50006 23.7761 9.72384 24 9.99998 24C10.2761 24 10.5 23.7761 10.5 23.5C10.5 23.2238 10.7239 23 11 23C11.2762 23 11.5 23.2238 11.5 23.5C11.5 23.7761 11.7239 24 12 24C12.2761 24 12.5 23.7761 12.5 23.5C12.5 23.2238 12.7239 23 13 23C13.2762 23 13.5 23.2238 13.5 23.5C13.5 23.7761 13.7239 24 14 24C14.2762 24 14.5 23.7761 14.5 23.5C14.5 23.2238 14.7239 23 15 23C15.2762 23 15.5001 23.2238 15.5001 23.5C15.5001 23.7761 15.7238 24 16 24C16.2761 24 16.5 23.7761 16.5 23.5C16.5 23.2238 16.7239 23 17 23C17.2762 23 17.5 23.2238 17.5 23.5C17.5 23.7761 17.7239 24 18 24H19C19.2761 24 19.5 23.7761 19.5 23.5V0.500016C19.5 0.223875 19.2761 0 19 0Z" fill="#CFD8DC"/>
<path d="M11 3.99998H7.00006C6.72392 3.99998 6.50005 3.77611 6.50005 3.49997C6.50005 3.22383 6.72387 3 7.00002 3H11C11.2761 3 11.5 3.22388 11.5 3.50002C11.5 3.77616 11.2762 3.99998 11 3.99998ZM17 6.99998H7.00002C6.72387 6.99998 6.5 6.77611 6.5 6.49997C6.5 6.22383 6.72387 6 7.00002 6H17C17.2761 6 17.5 6.22388 17.5 6.50002C17.5 6.77616 17.2762 6.99998 17 6.99998ZM17 9.99998H7.00002C6.72387 9.99998 6.5 9.77611 6.5 9.49997C6.5 9.22383 6.72387 9 7.00002 9H17C17.2761 9 17.5 9.22388 17.5 9.50002C17.5 9.77616 17.2762 9.99998 17 9.99998ZM12 13H7.00002C6.72387 13 6.5 12.7761 6.5 12.5C6.5 12.2238 6.72387 12 7.00002 12H12C12.2762 12 12.5 12.2238 12.5 12.5C12.5 12.7762 12.2762 13 12 13ZM11 16H7.00006C6.72392 16 6.50005 15.7761 6.50005 15.5C6.50005 15.2238 6.72392 15 7.00006 15H11C11.2762 15 11.5001 15.2238 11.5001 15.5C11.5 15.7762 11.2762 16 11 16ZM11 19H7.00006C6.72392 19 6.50005 18.7761 6.50005 18.5C6.50005 18.2238 6.72392 18 7.00006 18H11C11.2762 18 11.5001 18.2238 11.5001 18.5C11.5 18.7762 11.2762 19 11 19Z" fill="#90A4AE"/>
<path d="M14.9998 19.9997C13.8108 20.1171 12.7278 19.3105 12.4998 18.1377C12.4768 17.8626 12.6809 17.621 12.9558 17.5977C13.2294 17.579 13.4684 17.7808 13.4958 18.0537C13.5398 18.5747 14.2128 18.9996 14.9958 18.9996C15.8098 18.9996 16.4958 18.5416 16.4958 17.9997C16.4958 17.5116 16.0218 17.1996 15.0058 17.0106L14.8998 16.9896C13.2778 16.6896 12.4998 16.0266 12.4998 14.9997C12.6562 13.7672 13.7631 12.8818 14.9998 12.9996C16.1885 12.8821 17.2714 13.6882 17.4998 14.8606C17.5234 15.1357 17.3196 15.3779 17.0444 15.4016L17.0438 15.4016C16.9123 15.4101 16.7827 15.3673 16.682 15.2823C16.5813 15.1973 16.5175 15.0767 16.5038 14.9456C16.4578 14.4236 15.7848 13.9996 14.9998 13.9996C14.1858 13.9996 13.4998 14.4576 13.4998 14.9996C13.4998 15.4876 13.9748 15.7996 14.9938 15.9896L15.1028 16.0106C16.7228 16.3106 17.5028 16.9736 17.5028 18.0006C17.3459 19.234 16.2373 20.1193 14.9998 19.9997Z" fill="#4CAF50"/>
<path d="M15 21C14.7239 21 14.5 20.7761 14.5 20.5V12.5C14.5 12.2239 14.7239 12 15 12C15.2762 12 15.5 12.2239 15.5 12.5V20.5C15.5 20.7761 15.2762 21 15 21Z" fill="#4CAF50"/>
</g>
<defs>
<clipPath id="clip0_1259_4437">
<rect width="24" height="24" fill="white"/>
</clipPath>
</defs>
</svg>
