<svg width="24" height="24" viewBox="0 0 24 24" fill="none" xmlns="http://www.w3.org/2000/svg">
<g clip-path="url(#clip0_1259_4416)">
<path d="M22.25 23.9998H1.75C0.785 23.9998 0 23.2148 0 22.2498V8.49984C0 8.25284 0.122 8.02184 0.325 7.88184L11.575 0.131838C11.7 0.0453524 11.8485 -0.000976562 12.0005 -0.000976562C12.1525 -0.000976563 12.301 0.0453524 12.426 0.131838L23.676 7.88184C23.878 8.02184 24 8.25284 24 8.49984V22.2498C24 23.2148 23.215 23.9998 22.25 23.9998Z" fill="#CFD8DC"/>
<path d="M19 24H5V12C5 11.7348 5.10536 11.4804 5.29289 11.2929C5.48043 11.1054 5.73478 11 6 11H18C18.2652 11 18.5196 11.1054 18.7071 11.2929C18.8946 11.4804 19 11.7348 19 12V24Z" fill="#455A64"/>
<path d="M19 16H5V12C5 11.7348 5.10536 11.4804 5.29289 11.2929C5.48043 11.1054 5.73478 11 6 11H18C18.2652 11 18.5196 11.1054 18.7071 11.2929C18.8946 11.4804 19 11.7348 19 12V16Z" fill="#90A4AE"/>
<path d="M13 14.5C13 13.949 12.551 13.5 12 13.5C11.449 13.5 11 13.949 11 14.5H5V16H19V14.5H13Z" fill="#607D8B"/>
</g>
<defs>
<clipPath id="clip0_1259_4416">
<rect width="24" height="24" fill="white"/>
</clipPath>
</defs>
</svg>
