<svg width="24" height="24" viewBox="0 0 24 24" fill="none" xmlns="http://www.w3.org/2000/svg">
<g clip-path="url(#clip0_1259_4367)">
<path d="M12 24C18.6274 24 24 18.6274 24 12C24 5.37258 18.6274 0 12 0C5.37258 0 0 5.37258 0 12C0 18.6274 5.37258 24 12 24Z" fill="#FFD54F"/>
<path d="M7 11C8.10457 11 9 10.1046 9 9C9 7.89543 8.10457 7 7 7C5.89543 7 5 7.89543 5 9C5 10.1046 5.89543 11 7 11Z" fill="#6D4C41"/>
<path d="M17 11C18.1046 11 19 10.1046 19 9C19 7.89543 18.1046 7 17 7C15.8954 7 15 7.89543 15 9C15 10.1046 15.8954 11 17 11Z" fill="#6D4C41"/>
<path d="M16.9998 19.5359C16.9013 19.5361 16.8037 19.5168 16.7127 19.479C16.6217 19.4413 16.5391 19.3858 16.4698 19.3159C15.2758 18.1219 13.6888 17.4639 11.9998 17.4639C10.3108 17.4639 8.72376 18.1219 7.52976 19.3159C7.4601 19.3855 7.37739 19.4408 7.28637 19.4785C7.19535 19.5162 7.09779 19.5356 6.99926 19.5356C6.90074 19.5356 6.80318 19.5162 6.71216 19.4785C6.62114 19.4408 6.53843 19.3855 6.46876 19.3159C6.3991 19.2462 6.34384 19.1635 6.30613 19.0725C6.26843 18.9814 6.24902 18.8839 6.24902 18.7854C6.24902 18.6868 6.26843 18.5893 6.30613 18.4983C6.34384 18.4072 6.3991 18.3245 6.46876 18.2549C7.94576 16.7769 9.90976 15.9639 11.9988 15.9639C14.0878 15.9639 16.0518 16.7769 17.5288 18.2549C17.6338 18.3596 17.7054 18.4932 17.7345 18.6387C17.7636 18.7842 17.749 18.935 17.6923 19.0721C17.6357 19.2093 17.5397 19.3265 17.4164 19.4091C17.2931 19.4916 17.1481 19.5357 16.9998 19.5359Z" fill="#6D4C41"/>
</g>
<defs>
<clipPath id="clip0_1259_4367">
<rect width="24" height="24" fill="white"/>
</clipPath>
</defs>
</svg>
