<svg width="24" height="24" viewBox="0 0 24 24" fill="none" xmlns="http://www.w3.org/2000/svg">
<path d="M14.36 6.153C14.3134 6.10461 14.2575 6.06612 14.1956 6.03984C14.1338 6.01355 14.0672 6 14 6H10C9.93284 6 9.86632 6.01355 9.80446 6.03984C9.74261 6.06612 9.68669 6.10461 9.64005 6.153C8.90903 6.90998 2.5 13.634 2.5 16.5C2.5 20.636 6.76202 24 12 24C17.238 24 21.5 20.636 21.5 16.5C21.5 13.634 15.091 6.90998 14.36 6.153Z" fill="#4CAF50"/>
<path d="M18.3753 0.669C17.5423 -0.273 15.3753 0.963 14.1313 1.8C13.5613 0.99 12.7173 0 12.0003 0C11.2833 0 10.4393 0.99 9.86932 1.8C8.6283 0.962016 6.45729 -0.273984 5.6253 0.669C5.51123 0.800527 5.42567 0.954282 5.37404 1.12055C5.3224 1.28682 5.30581 1.46199 5.3253 1.635C5.48632 3.48698 9.25629 6.54802 9.68529 6.89002C9.77459 6.96168 9.88579 7.00051 10.0003 7.00003H14.0003C14.1136 7.00012 14.2236 6.96169 14.3123 6.89105C14.7413 6.54806 18.5123 3.49106 18.6723 1.63603C18.6925 1.46306 18.6766 1.28777 18.6255 1.12129C18.5743 0.954815 18.4891 0.800789 18.3753 0.669Z" fill="#4CAF50"/>
<path d="M16 6.99998H8.00002C7.72388 6.99998 7.5 6.77611 7.5 6.49997C7.5 6.22383 7.72388 6 8.00002 6H16C16.2762 6 16.5 6.22388 16.5 6.50002C16.5 6.77616 16.2761 6.99998 16 6.99998Z" fill="#388E3C"/>
<path d="M11.9998 19.9997C10.8108 20.1171 9.72784 19.3104 9.49984 18.1376C9.47663 17.8615 9.68171 17.6188 9.95785 17.5956C10.234 17.5724 10.4767 17.7775 10.4999 18.0536C10.5439 18.5756 11.2169 18.9996 11.9999 18.9996C12.8139 18.9996 13.4999 18.5416 13.4999 17.9996C13.4999 17.5116 13.0259 17.1996 12.0089 17.0096L11.8999 16.9896C10.2769 16.6896 9.49988 16.0266 9.49988 14.9996C9.65631 13.7672 10.7632 12.8817 11.9999 12.9996C13.1889 12.8822 14.2719 13.6888 14.4999 14.8616C14.5231 15.1378 14.318 15.3804 14.0418 15.4036C13.7657 15.4269 13.523 15.2218 13.4998 14.9456C13.4578 14.4236 12.7848 13.9997 11.9998 13.9997C11.1858 13.9997 10.4998 14.4577 10.4998 14.9996C10.4998 15.4877 10.9748 15.7997 11.9928 15.9896L12.1029 16.0106C13.7229 16.3106 14.5029 16.9727 14.5029 18.0006C14.3459 19.2339 13.2373 20.1193 11.9998 19.9997Z" fill="#FAFAFA"/>
<path d="M12 21C11.7239 21 11.5 20.7761 11.5 20.5V12.5C11.5 12.2239 11.7239 12 12 12C12.2762 12 12.5 12.2239 12.5 12.5V20.5C12.5 20.7761 12.2762 21 12 21Z" fill="#FAFAFA"/>
</svg>
