<svg width="24" height="24" viewBox="0 0 24 24" fill="none" xmlns="http://www.w3.org/2000/svg">
<g clip-path="url(#clip0_1259_4390)">
<path d="M12 24C18.6274 24 24 18.6274 24 12C24 5.37258 18.6274 0 12 0C5.37258 0 0 5.37258 0 12C0 18.6274 5.37258 24 12 24Z" fill="#FFD54F"/>
<path d="M7 11C8.10457 11 9 10.1046 9 9C9 7.89543 8.10457 7 7 7C5.89543 7 5 7.89543 5 9C5 10.1046 5.89543 11 7 11Z" fill="#6D4C41"/>
<path d="M17 11C18.1046 11 19 10.1046 19 9C19 7.89543 18.1046 7 17 7C15.8954 7 15 7.89543 15 9C15 10.1046 15.8954 11 17 11Z" fill="#6D4C41"/>
<path d="M7.75033 19.1666C7.57199 19.1669 7.39939 19.1037 7.26347 18.9882C7.12755 18.8728 7.03723 18.7126 7.00869 18.5366C6.98015 18.3606 7.01528 18.1801 7.10776 18.0277C7.20024 17.8752 7.34403 17.7606 7.51333 17.7046L16.0133 14.8716C16.202 14.8086 16.408 14.8232 16.586 14.9121C16.764 15.0009 16.8993 15.1569 16.9623 15.3456C17.0253 15.5343 17.0108 15.7403 16.9219 15.9183C16.833 16.0962 16.677 16.2316 16.4883 16.2946L7.98833 19.1276C7.91157 19.1532 7.83123 19.1664 7.75033 19.1666Z" fill="#6D4C41"/>
</g>
<defs>
<clipPath id="clip0_1259_4390">
<rect width="24" height="24" fill="white"/>
</clipPath>
</defs>
</svg>
