<svg width="24" height="24" viewBox="0 0 24 24" fill="none" xmlns="http://www.w3.org/2000/svg">
<path d="M17.5 0H6.5C5.67158 0 5 0.671578 5 1.5C5 2.32842 5.67158 3 6.5 3H17.5C18.3284 3 19 2.32842 19 1.5C19 0.671578 18.3284 0 17.5 0Z" fill="#455A64"/>
<path d="M17.5 22H6.50002C6.22388 22 6 21.7761 6 21.5V17.315C5.99997 16.6735 6.1371 16.0394 6.40218 15.4552C6.66726 14.8711 7.05418 14.3503 7.53698 13.928L9.30998 12.376C9.51764 12.194 9.53841 11.8781 9.35639 11.6704C9.34195 11.6539 9.32644 11.6384 9.30998 11.624L7.53698 10.072C7.05418 9.64963 6.66726 9.1289 6.40218 8.54474C6.1371 7.96059 5.99997 7.32651 6 6.68502V2.50002C6 2.22388 6.22388 2 6.50002 2H17.5C17.7762 2 18 2.22388 18 2.50002V6.68502C18.0001 7.32651 17.863 7.96059 17.5979 8.54474C17.3328 9.1289 16.9459 9.64963 16.4631 10.072L14.6901 11.624C14.4824 11.806 14.4616 12.1219 14.6437 12.3296C14.6581 12.346 14.6736 12.3615 14.6901 12.376L16.4631 13.928C16.9459 14.3503 17.3328 14.8711 17.5979 15.4552C17.863 16.0394 18.0001 16.6735 18 17.315V21.5C18 21.7761 17.7761 22 17.5 22Z" fill="#455A64"/>
<path d="M7 21H17V17.315C16.9994 16.8158 16.892 16.3225 16.685 15.8682C16.478 15.4139 16.1763 15.0091 15.8 14.681L14.027 13.129C13.4035 12.5836 13.3402 11.636 13.8856 11.0124C13.9295 10.9622 13.9768 10.915 14.027 10.8711L15.8 9.31908C16.1763 8.99101 16.478 8.58624 16.685 8.13194C16.892 7.67763 16.9994 7.18431 17 6.68508V3H7V6.68498C7.0006 7.18421 7.10799 7.67754 7.31496 8.13184C7.52194 8.58615 7.8237 8.99092 8.2 9.31898L9.973 10.871C10.5963 11.4167 10.6591 12.3644 10.1133 12.9877C10.0697 13.0375 10.0228 13.0844 9.973 13.128L8.2 14.681C7.8237 15.0091 7.52194 15.4139 7.31496 15.8682C7.10799 16.3225 7.0006 16.8158 7 17.315V21Z" fill="#ECEFF1"/>
<path d="M14.9619 8.309C14.9241 8.21757 14.86 8.1394 14.7778 8.08439C14.6955 8.02939 14.5988 8.00002 14.4999 8H9.49991C9.40089 7.99983 9.30405 8.02906 9.22166 8.08399C9.13927 8.13892 9.07505 8.21708 9.03713 8.30855C8.99922 8.40002 8.98931 8.5007 9.00868 8.5978C9.02804 8.69491 9.07581 8.78408 9.14591 8.85402L11.6459 11.354C11.8411 11.5492 12.1576 11.5492 12.3529 11.354L14.8529 8.85402C14.9229 8.78415 14.9707 8.69506 14.9901 8.59805C15.0095 8.50103 14.9997 8.40044 14.9619 8.309Z" fill="#FFC107"/>
<path d="M17.5 21H6.5C5.67158 21 5 21.6716 5 22.5C5 23.3284 5.67158 24 6.5 24H17.5C18.3284 24 19 23.3284 19 22.5C19 21.6716 18.3284 21 17.5 21Z" fill="#455A64"/>
<path d="M12.336 15.6303C12.2409 15.5442 12.1164 15.498 11.9881 15.5011C11.8599 15.5043 11.7377 15.5566 11.647 15.6473L7 20.2933V21.0003H17V19.8703L12.336 15.6303Z" fill="#FFC107"/>
</svg>
