<svg width="24" height="24" viewBox="0 0 24 24" fill="none" xmlns="http://www.w3.org/2000/svg">
<g clip-path="url(#clip0_1259_1151)">
<path d="M12 24C18.6274 24 24 18.6274 24 12C24 5.37258 18.6274 0 12 0C5.37258 0 0 5.37258 0 12C0 18.6274 5.37258 24 12 24Z" fill="#FFD54F"/>
<path d="M9.25 12.5H4.75C4.55109 12.5 4.36032 12.421 4.21967 12.2803C4.07902 12.1397 4 11.9489 4 11.75C4 11.5511 4.07902 11.3603 4.21967 11.2197C4.36032 11.079 4.55109 11 4.75 11H9.25C9.44891 11 9.63968 11.079 9.78033 11.2197C9.92098 11.3603 10 11.5511 10 11.75C10 11.9489 9.92098 12.1397 9.78033 12.2803C9.63968 12.421 9.44891 12.5 9.25 12.5ZM19.25 12.5H14.75C14.5511 12.5 14.3603 12.421 14.2197 12.2803C14.079 12.1397 14 11.9489 14 11.75C14 11.5511 14.079 11.3603 14.2197 11.2197C14.3603 11.079 14.5511 11 14.75 11H19.25C19.4489 11 19.6397 11.079 19.7803 11.2197C19.921 11.3603 20 11.5511 20 11.75C20 11.9489 19.921 12.1397 19.7803 12.2803C19.6397 12.421 19.4489 12.5 19.25 12.5ZM15.25 18.5H8.75C8.55109 18.5 8.36032 18.421 8.21967 18.2803C8.07902 18.1397 8 17.9489 8 17.75C8 17.5511 8.07902 17.3603 8.21967 17.2197C8.36032 17.079 8.55109 17 8.75 17H15.25C15.4489 17 15.6397 17.079 15.7803 17.2197C15.921 17.3603 16 17.5511 16 17.75C16 17.9489 15.921 18.1397 15.7803 18.2803C15.6397 18.421 15.4489 18.5 15.25 18.5Z" fill="#6D4C41"/>
<path d="M3.25 9C3.05109 9 2.86032 8.92098 2.71967 8.78033C2.57902 8.63968 2.5 8.44891 2.5 8.25V6.5H0.75C0.551088 6.5 0.360322 6.42098 0.21967 6.28033C0.0790176 6.13968 0 5.94891 0 5.75C0 5.55109 0.0790176 5.36032 0.21967 5.21967C0.360322 5.07902 0.551088 5 0.75 5H3.25C3.44891 5 3.63968 5.07902 3.78033 5.21967C3.92098 5.36032 4 5.55109 4 5.75V8.25C4 8.44891 3.92098 8.63968 3.78033 8.78033C3.63968 8.92098 3.44891 9 3.25 9ZM3.25 4H0.75C0.551088 4 0.360322 3.92098 0.21967 3.78033C0.0790176 3.63968 0 3.44891 0 3.25C0 3.05109 0.0790176 2.86032 0.21967 2.71967C0.360322 2.57902 0.551088 2.5 0.75 2.5H2.5V0.75C2.5 0.551088 2.57902 0.360322 2.71967 0.21967C2.86032 0.0790176 3.05109 0 3.25 0C3.44891 0 3.63968 0.0790176 3.78033 0.21967C3.92098 0.360322 4 0.551088 4 0.75V3.25C4 3.44891 3.92098 3.63968 3.78033 3.78033C3.63968 3.92098 3.44891 4 3.25 4ZM5.75 9C5.55109 9 5.36032 8.92098 5.21967 8.78033C5.07902 8.63968 5 8.44891 5 8.25V5.75C5 5.55109 5.07902 5.36032 5.21967 5.21967C5.36032 5.07902 5.55109 5 5.75 5H8.25C8.44891 5 8.63968 5.07902 8.78033 5.21967C8.92098 5.36032 9 5.55109 9 5.75C9 5.94891 8.92098 6.13968 8.78033 6.28033C8.63968 6.42098 8.44891 6.5 8.25 6.5H6.5V8.25C6.5 8.44891 6.42098 8.63968 6.28033 8.78033C6.13968 8.92098 5.94891 9 5.75 9ZM8.25 4H5.75C5.55109 4 5.36032 3.92098 5.21967 3.78033C5.07902 3.63968 5 3.44891 5 3.25V0.75C5 0.551088 5.07902 0.360322 5.21967 0.21967C5.36032 0.0790176 5.55109 0 5.75 0C5.94891 0 6.13968 0.0790176 6.28033 0.21967C6.42098 0.360322 6.5 0.551088 6.5 0.75V2.5H8.25C8.44891 2.5 8.63968 2.57902 8.78033 2.71967C8.92098 2.86032 9 3.05109 9 3.25C9 3.44891 8.92098 3.63968 8.78033 3.78033C8.63968 3.92098 8.44891 4 8.25 4Z" fill="#00BCD4"/>
</g>
<defs>
<clipPath id="clip0_1259_1151">
<rect width="24" height="24" fill="white"/>
</clipPath>
</defs>
</svg>
