<svg width="60" height="60" viewBox="0 0 60 60" fill="none" xmlns="http://www.w3.org/2000/svg">
<g clip-path="url(#clip0_519_6971)">
<path d="M16.6257 60H12.0562C11.0369 60 10.1933 59.1916 10.1933 58.2425V55.3954C9.52548 55.0791 8.85764 54.7276 8.22495 54.2355L5.79964 55.6766C5.2724 56.0633 4.00703 56.0633 3.37434 54.9385L1.05448 51.0018C0.527238 50.123 0.843582 49.0334 1.75747 48.5061L4.11247 47.1002V44.8858L1.75747 43.4798C0.843582 42.9525 0.527238 41.8629 1.05448 40.9842L3.37434 37.0474C4.00703 35.9227 5.30755 35.9227 5.83479 36.3445L8.22495 37.7856C8.85764 37.2935 9.49033 36.9068 10.1933 36.6257V33.7434C10.1933 32.7944 11.0369 31.9859 12.0562 31.9859H16.6257C17.645 31.9859 18.4886 32.7944 18.4886 33.7434V36.6608C19.1916 36.942 19.8594 37.3638 20.4569 37.7856L22.8822 36.3093C23.4095 35.9227 24.6749 35.9227 25.3076 37.0474L27.6274 40.9842C28.1547 41.8629 27.8383 42.9525 26.9244 43.4798L24.5694 44.8858V47.1002L26.9244 48.5061C27.8383 49.0334 28.1898 50.123 27.6274 51.0018L25.3076 54.9736C24.6749 56.0984 23.3392 56.0633 22.8471 55.6766L20.4569 54.2355C19.8594 54.6573 19.1916 55.0439 18.4886 55.3603V58.2425C18.4886 59.1916 17.645 60 16.6257 60ZM41.6872 37.2935C38.7346 37.2935 36.0633 35.7469 34.587 33.1459C31.0369 27.0299 36.8014 19.5079 43.761 21.3005C50.9315 23.1634 51.8102 32.6186 45.7293 36.2039C44.4991 36.942 43.0931 37.2935 41.6872 37.2935ZM41.6872 22.9174C40.5975 22.9174 39.5079 23.1986 38.5589 23.761C33.7786 26.5729 35.7469 32.232 36.2039 32.232C37.9262 35.2548 41.7926 36.3445 44.7803 34.587C50.1933 31.4235 48.1898 22.9174 41.6872 22.9174ZM47.0299 46.7135C46.1863 46.7135 45.3779 46.116 45.2724 45.6942L43.3392 42.3199C42.2496 42.4956 41.0896 42.4956 39.9648 42.3199L38.0668 45.7293C37.9262 46.2214 36.5905 47.2408 35.1494 46.3972L29.9121 43.3743C28.8928 42.8119 28.6116 41.5114 29.174 40.5272L31.1072 37.2232C30.3691 36.3093 29.9121 35.4306 29.4552 34.3409H25.5536C24.4288 34.3409 23.4446 33.3216 23.4446 32.232V26.116C23.4446 24.9561 24.3937 24.007 25.5536 24.007H29.4552C29.8418 23.0228 30.3691 22.0738 31.1072 21.1248L29.174 17.7856C28.1195 15.993 29.877 14.8682 29.877 14.8682L35.1494 11.8102C36.9068 10.7909 38.0668 12.6186 38.0668 12.6186L40 15.9227C41.0896 15.8172 42.2144 15.8172 43.3392 15.9227L45.2724 12.6186C45.8699 11.5641 47.1353 11.2126 48.1898 11.8102L53.5325 14.9385C54.4464 15.6063 54.6924 16.8365 54.1301 17.7856L52.232 21.1248C53.0756 22.2496 53.3568 22.601 53.884 24.007H57.7856C58.9455 24.007 59.8945 24.9561 59.8945 26.116V32.1968C59.8945 33.3216 58.9104 34.3058 57.7856 34.3058H53.8489C53.4271 35.3251 52.8998 36.3093 52.232 37.2232L54.1301 40.5272C54.7276 41.5114 54.4464 42.7768 53.4271 43.3392L48.1898 46.3972C47.8383 46.6081 47.4165 46.7135 47.0299 46.7135ZM46.8893 44.7803C46.9947 44.9561 47.2408 44.7803 47.2408 44.7803L52.5483 41.7223L52.5132 41.5114L50.2988 37.645C49.7012 36.5905 51.2478 36.1687 52.3374 33.0756C52.4429 32.7241 52.8295 32.478 53.2162 32.478H57.7856C57.8559 32.4429 57.9965 32.3023 58.0316 32.232V26.1511C58.0316 25.9754 57.8559 25.9051 57.7856 25.9051H53.2162C52.1265 25.9051 52.2671 24.5343 51.5993 23.4798C49.8418 20.6678 49.2443 22.4956 52.5132 16.8717C52.5835 16.7311 52.5132 16.5554 52.4429 16.4851L47.2408 13.4271C47.1002 13.3568 46.9596 13.4622 46.8893 13.5677L44.6397 17.4341C44.0773 18.4534 42.9525 17.3638 39.6485 17.891C39.2619 17.9613 38.8752 17.7856 38.6995 17.4341L36.4499 13.5677C36.3093 13.3216 36.0984 13.4271 36.0984 13.4622L30.7557 16.5905C30.9315 17.2232 32.6186 19.9648 33.0404 20.7381C33.638 21.7926 32.0562 22.1793 31.0018 25.2373C30.8612 25.6239 30.5097 25.9051 30.123 25.9051H25.5536C25.4833 25.9051 25.3076 25.9402 25.3076 26.116V32.232C25.3076 32.3023 25.4482 32.4429 25.5536 32.4429H30.123C31.1775 32.4429 31.1072 33.9191 31.775 34.833C32.0914 35.4657 32.5132 35.993 32.9701 36.5554C33.2162 36.8717 33.2513 37.2935 33.0404 37.6098L30.7909 41.5114C30.7557 41.6169 30.7909 41.6872 30.7909 41.7223L36.0984 44.7803L36.4499 44.7452L38.6643 40.7733C39.3322 39.6133 40.4569 41.1248 43.5852 40.3163C44.007 40.2109 44.4288 40.4218 44.6397 40.7733L46.8893 44.7803ZM13.2162 19.6836C7.62741 19.6836 4.99121 13.0053 8.82249 9.17398C12.7592 5.2724 19.4376 8.0492 19.4376 13.5677C19.4376 16.942 16.6608 19.6836 13.2162 19.6836ZM13.2162 9.24428C10.7909 9.24428 8.89279 11.1423 8.89279 13.5677C8.89279 15.9227 10.826 17.7856 13.2162 17.7856C15.6063 17.7856 17.5747 15.9227 17.5747 13.5677C17.5747 11.1423 15.6415 9.24428 13.2162 9.24428ZM15.4657 27.065H11.0018C10.0176 27.065 9.24428 26.2917 9.24428 25.3076V22.6713C8.50615 22.355 7.87346 21.9684 7.31107 21.6169L5.02636 22.9174C4.18277 23.4798 3.16344 23.058 2.5659 22.2496L0.351491 18.4183C-0.17575 17.5395 0.105445 16.4499 1.01933 15.9227L3.26889 14.6221V12.4429L1.05448 11.1072C-0.070302 10.4745 -0.0703021 9.17398 0.351491 8.64674L2.60105 4.74516C3.12829 3.97187 4.25307 3.72583 5.02636 4.21792L7.27592 5.51845C7.90861 5.02636 8.57645 4.63971 9.24428 4.35852V1.72231C9.24428 0.73813 10.0176 -0.0351562 11.0018 -0.0351562H15.4657C16.4499 -0.0351562 17.2232 0.73813 17.2232 1.72231V4.35852C17.891 4.67486 18.5237 5.0615 19.0861 5.51845L21.4411 4.21792C22.2496 3.72583 23.2689 3.93672 23.9016 4.78031L26.1511 8.68189C26.5729 9.52548 26.2917 10.5097 25.4833 11.072L23.1283 12.4429C23.304 13.5325 23.1283 13.884 23.1283 14.587L25.4833 15.9578C26.2214 16.4499 26.6432 17.5747 26.116 18.3831L23.8664 22.2847C23.1986 23.058 22.2847 23.4446 21.406 22.9174L19.051 21.6169C18.5589 21.9684 17.9262 22.355 17.188 22.6362V25.3076C17.2232 26.2917 16.4499 27.065 15.4657 27.065ZM11.1072 25.2021H15.3251C15.3251 19.297 15.1142 22.5307 18.3831 19.7539C18.6643 19.5079 19.0861 19.4728 19.4376 19.6836L22.3199 21.2654L24.4288 17.5395L21.6872 15.9227C20.8084 15.3954 21.4763 14.3761 21.2654 12.8647C21.1951 12.3023 21.0545 11.4938 21.6872 11.1072L24.464 9.49033L22.355 5.83479L19.4376 7.48681C18.4183 8.0492 18.2074 6.64323 15.9578 5.90509C15.5712 5.76449 15.3251 5.413 15.3251 5.02636V1.86291H11.1072C11.1072 7.73286 11.3884 4.42882 7.97891 7.38136C7.66256 7.62741 7.24077 7.66256 6.88928 7.45166L4.11247 5.83479L2.00351 9.49033C6.11599 11.9156 5.13181 10.8963 5.13181 13.5677C5.13181 16.0984 6.15114 15.1494 2.00351 17.5395L4.18277 21.2654L6.88928 19.6836C7.83831 19.1564 8.3304 20.4218 10.4745 21.1248C10.8612 21.2654 11.1424 21.6169 11.1424 22.0387V25.2021H11.1072ZM14.2706 52.4077C10.8612 52.4077 7.94376 49.4903 7.94376 46.0457C7.94376 42.4956 10.7909 39.6133 14.2706 39.6133C17.8207 39.6133 20.7381 42.4956 20.7381 46.0457C20.7381 49.5606 17.8207 52.4077 14.2706 52.4077ZM14.2706 41.4763C11.8102 41.4763 9.84182 43.5501 9.84182 46.0457C9.84182 48.471 11.8805 50.5097 14.2706 50.5097C16.8014 50.5097 18.8401 48.5061 18.8401 46.0457C18.8401 43.5501 16.8014 41.4763 14.2706 41.4763ZM12.0562 58.1371H16.6257V54.7276C16.6257 53.638 17.9262 53.9543 19.7891 52.3726C20.0703 52.1265 20.5272 52.0914 20.8787 52.3023L23.6907 53.9894L25.9754 50.123C21.6872 47.5571 22.7416 48.5764 22.7416 46.0457C22.7416 43.3392 21.7223 44.4288 25.9754 41.8629L23.6907 37.9965C18.5589 41.0545 21.4763 39.7539 17.2232 38.1371C16.8717 37.9965 16.6257 37.645 16.6257 37.2583V33.8489H12.0562C12.0562 40.0351 12.3726 36.6257 8.92794 39.6133C8.6116 39.8594 8.15465 39.8945 7.83831 39.6836L4.99121 37.9965L2.7065 41.8629C6.95957 44.4288 5.94024 43.3392 5.94024 46.0457C5.94024 48.5764 6.99472 47.5571 2.7065 50.123L4.99121 53.9894L7.83831 52.3023C8.82249 51.6696 9.13884 53.0756 11.4235 53.8489C11.8102 53.9894 12.0562 54.3409 12.0562 54.7276V58.1371Z" fill="white"/>
</g>
<defs>
<clipPath id="clip0_519_6971">
<rect width="60" height="60" fill="white"/>
</clipPath>
</defs>
</svg>
