<svg width="60" height="60" viewBox="0 0 60 60" fill="none" xmlns="http://www.w3.org/2000/svg">
<g clip-path="url(#clip0_519_6962)">
<path d="M51.5137 46.6101C50.497 46.6108 49.5028 46.31 48.6571 45.7457C47.8113 45.1813 47.1519 44.3788 46.7623 43.4397C46.3727 42.5005 46.2704 41.4669 46.4683 40.4696C46.6662 39.4723 47.1554 38.5561 47.8741 37.8369C48.5928 37.1177 49.5087 36.6278 50.5058 36.4291C51.503 36.2305 52.5367 36.3321 53.4761 36.721C54.4155 37.1099 55.2185 37.7687 55.7835 38.6141C56.3484 39.4594 56.65 40.4533 56.65 41.4701C56.6493 42.8324 56.1081 44.1389 55.1451 45.1026C54.1821 46.0662 52.8761 46.6084 51.5137 46.6101ZM51.5137 38.2051C50.8678 38.2043 50.2362 38.3952 49.6988 38.7535C49.1613 39.1118 48.7423 39.6215 48.4946 40.218C48.2469 40.8146 48.1817 41.4712 48.3073 42.1047C48.4328 42.7383 48.7435 43.3205 49.1999 43.7775C49.6564 44.2344 50.2382 44.5458 50.8716 44.6721C51.5051 44.7984 52.1618 44.7339 52.7586 44.4869C53.3554 44.2399 53.8655 43.8214 54.2245 43.2844C54.5834 42.7474 54.775 42.116 54.775 41.4701C54.7746 40.6049 54.4311 39.7752 53.8196 39.1631C53.2082 38.5509 52.3789 38.2064 51.5137 38.2051ZM24.4275 46.6101C23.4107 46.6111 22.4164 46.3105 21.5705 45.7463C20.7246 45.1821 20.065 44.3797 19.6752 43.4405C19.2854 42.5014 19.1829 41.4678 19.3806 40.4704C19.5784 39.473 20.0675 38.5567 20.7862 37.8373C21.5048 37.118 22.4207 36.6279 23.4179 36.4292C24.4151 36.2305 25.4488 36.332 26.3883 36.7209C27.3278 37.1097 28.1309 37.7686 28.6959 38.6139C29.2609 39.4593 29.5625 40.4533 29.5625 41.4701C29.5615 42.8321 29.0203 44.1382 28.0577 45.1017C27.095 46.0653 25.7895 46.6078 24.4275 46.6101ZM24.4275 38.2051C23.7815 38.2041 23.1498 38.3947 22.6122 38.7529C22.0746 39.1111 21.6553 39.6206 21.4074 40.2171C21.1596 40.8137 21.0942 41.4703 21.2196 42.104C21.345 42.7377 21.6556 43.3199 22.112 43.777C22.5684 44.2341 23.1502 44.5456 23.7837 44.672C24.4171 44.7984 25.0739 44.734 25.6708 44.487C26.2677 44.24 26.7779 43.8216 27.1369 43.2845C27.4959 42.7475 27.6875 42.116 27.6875 41.4701C27.6868 40.6052 27.3433 39.7759 26.7322 39.1639C26.1211 38.5519 25.2923 38.2071 24.4275 38.2051Z" fill="white"/>
<path d="M58.2762 42.4074H55.7125C55.4638 42.4074 55.2254 42.3086 55.0496 42.1328C54.8738 41.957 54.775 41.7185 54.775 41.4699C54.775 41.2212 54.8738 40.9828 55.0496 40.807C55.2254 40.6312 55.4638 40.5324 55.7125 40.5324H58.0112V35.5611C58.0106 34.889 57.8385 34.2282 57.5112 33.6411L52.4362 24.5424C52.3929 24.4647 52.3296 24.4 52.2529 24.355C52.1762 24.31 52.0889 24.2862 52 24.2861H45.0837V40.5361H47.3162C47.5649 40.5361 47.8033 40.6349 47.9792 40.8107C48.155 40.9865 48.2537 41.225 48.2537 41.4736C48.2537 41.7223 48.155 41.9607 47.9792 42.1365C47.8033 42.3124 47.5649 42.4111 47.3162 42.4111H44.1462C43.8976 42.4111 43.6591 42.3124 43.4833 42.1365C43.3075 41.9607 43.2087 41.7223 43.2087 41.4736V23.3486C43.2087 23.1 43.3075 22.8615 43.4833 22.6857C43.6591 22.5099 43.8976 22.4111 44.1462 22.4111H52C52.4229 22.4109 52.8383 22.5237 53.2031 22.7377C53.5678 22.9517 53.8689 23.2593 54.075 23.6286L59.1487 32.7286C59.6311 33.5948 59.8845 34.5697 59.885 35.5611V40.7986C59.8843 41.2251 59.7146 41.6339 59.4131 41.9355C59.1115 42.237 58.7027 42.4067 58.2762 42.4074ZM20.2287 42.4074H11.24C10.9913 42.4074 10.7529 42.3086 10.5771 42.1328C10.4013 41.957 10.3025 41.7185 10.3025 41.4699V34.2599C10.3025 34.0112 10.4013 33.7728 10.5771 33.597C10.7529 33.4212 10.9913 33.3224 11.24 33.3224C11.4886 33.3224 11.7271 33.4212 11.9029 33.597C12.0787 33.7728 12.1775 34.0112 12.1775 34.2599V40.5324H20.2287C20.4774 40.5324 20.7158 40.6312 20.8917 40.807C21.0675 40.9828 21.1662 41.2212 21.1662 41.4699C21.1662 41.7185 21.0675 41.957 20.8917 42.1328C20.7158 42.3086 20.4774 42.4074 20.2287 42.4074ZM11.24 30.9336C10.9913 30.9336 10.7529 30.8349 10.5771 30.659C10.4013 30.4832 10.3025 30.2448 10.3025 29.9961V23.7011C10.3025 23.4525 10.4013 23.214 10.5771 23.0382C10.7529 22.8624 10.9913 22.7636 11.24 22.7636C11.4886 22.7636 11.7271 22.8624 11.9029 23.0382C12.0787 23.214 12.1775 23.4525 12.1775 23.7011V29.9999C12.1765 30.2479 12.0773 30.4854 11.9016 30.6604C11.7259 30.8354 11.488 30.9336 11.24 30.9336Z" fill="white"/>
<path d="M44.1462 42.4071H28.625C28.3763 42.4071 28.1379 42.3083 27.9621 42.1325C27.7863 41.9567 27.6875 41.7182 27.6875 41.4696C27.6875 41.221 27.7863 40.9825 27.9621 40.8067C28.1379 40.6309 28.3763 40.5321 28.625 40.5321H43.2087V16.0059H12.1775V19.8671C12.1775 20.1157 12.0787 20.3542 11.9029 20.53C11.7271 20.7058 11.4886 20.8046 11.24 20.8046C10.9913 20.8046 10.7529 20.7058 10.5771 20.53C10.4013 20.3542 10.3025 20.1157 10.3025 19.8671V15.8334C10.3031 15.3818 10.4829 14.949 10.8023 14.6298C11.1217 14.3106 11.5547 14.1312 12.0062 14.1309H43.3812C43.8326 14.1315 44.2652 14.3111 44.5844 14.6302C44.9035 14.9494 45.0831 15.382 45.0837 15.8334V41.4696C45.0837 41.7182 44.985 41.9567 44.8091 42.1325C44.6333 42.3083 44.3949 42.4071 44.1462 42.4071ZM14.9462 35.1971H3.04749C2.79884 35.1971 2.56039 35.0983 2.38457 34.9225C2.20876 34.7467 2.10999 34.5083 2.10999 34.2596C2.10999 34.011 2.20876 33.7725 2.38457 33.5967C2.56039 33.4209 2.79884 33.3221 3.04749 33.3221H14.9462C15.1949 33.3221 15.4333 33.4209 15.6091 33.5967C15.785 33.7725 15.8837 34.011 15.8837 34.2596C15.8837 34.5083 15.785 34.7467 15.6091 34.9225C15.4333 35.0983 15.1949 35.1971 14.9462 35.1971Z" fill="white"/>
<path d="M24.4275 30.9334H7.82373C7.57509 30.9334 7.33663 30.8347 7.16082 30.6589C6.985 30.483 6.88623 30.2446 6.88623 29.9959C6.88623 29.7473 6.985 29.5088 7.16082 29.333C7.33663 29.1572 7.57509 29.0584 7.82373 29.0584H24.4275C24.6761 29.0584 24.9146 29.1572 25.0904 29.333C25.2662 29.5088 25.365 29.7473 25.365 29.9959C25.365 30.2446 25.2662 30.483 25.0904 30.6589C24.9146 30.8347 24.6761 30.9334 24.4275 30.9334ZM7.30748 25.9834H0.82373C0.57509 25.9834 0.336633 25.8847 0.160818 25.7088C-0.0149975 25.533 -0.11377 25.2946 -0.11377 25.0459C-0.11377 24.7973 -0.0149975 24.5588 0.160818 24.383C0.336633 24.2072 0.57509 24.1084 0.82373 24.1084H7.30748C7.55612 24.1084 7.79458 24.2072 7.97039 24.383C8.14621 24.5588 8.24498 24.7973 8.24498 25.0459C8.24498 25.2946 8.14621 25.533 7.97039 25.7088C7.79458 25.8847 7.55612 25.9834 7.30748 25.9834ZM17.7037 20.8047H6.25873C6.01009 20.8047 5.77163 20.7059 5.59582 20.5301C5.42 20.3543 5.32123 20.1158 5.32123 19.8672C5.32123 19.6185 5.42 19.3801 5.59582 19.2043C5.77163 19.0285 6.01009 18.9297 6.25873 18.9297H17.7037C17.9524 18.9297 18.1908 19.0285 18.3666 19.2043C18.5425 19.3801 18.6412 19.6185 18.6412 19.8672C18.6412 20.1158 18.5425 20.3543 18.3666 20.5301C18.1908 20.7059 17.9524 20.8047 17.7037 20.8047Z" fill="white"/>
</g>
<defs>
<clipPath id="clip0_519_6962">
<rect width="60" height="60" fill="white"/>
</clipPath>
</defs>
</svg>
