<svg width="60" height="60" viewBox="0 0 60 60" fill="none" xmlns="http://www.w3.org/2000/svg">
<g clip-path="url(#clip0_519_6953)">
<path d="M33.9752 4.73181C33.8753 4.66157 33.7617 4.61298 33.6419 4.58914C33.5221 4.5653 33.3986 4.56674 33.2794 4.59337C33.1601 4.61999 33.0478 4.67122 32.9495 4.74378C32.8512 4.81633 32.7691 4.90861 32.7085 5.0147C32.7027 5.02525 32.6953 5.03486 32.6889 5.04446C32.4069 5.44736 31.8498 5.54521 31.447 5.26372C31.0492 4.9854 30.5013 5.0815 30.2229 5.47935L28.942 7.309C28.8498 7.44067 28.7955 7.59511 28.7849 7.75551C28.7744 7.91591 28.808 8.07614 28.8821 8.21877C28.9563 8.36139 29.0681 8.48096 29.2055 8.56446C29.3428 8.64797 29.5004 8.69222 29.6612 8.69239C29.8026 8.69255 29.942 8.65853 30.0675 8.59324C30.1929 8.52795 30.3008 8.43332 30.3818 8.31739L31.2446 7.0847C32.0549 7.3104 32.9352 7.1365 33.5989 6.61361L34.8953 7.52146C34.9897 7.59032 35.0968 7.63967 35.2106 7.66661C35.3243 7.69356 35.4422 7.69756 35.5575 7.67839C35.6727 7.65921 35.783 7.61724 35.8819 7.55493C35.9807 7.49263 36.0662 7.41123 36.1332 7.31551C36.2002 7.21979 36.2475 7.11167 36.2722 6.99747C36.2969 6.88326 36.2987 6.76527 36.2773 6.6504C36.2559 6.53552 36.2118 6.42607 36.1475 6.32844C36.0833 6.23081 36.0003 6.14697 35.9033 6.08181L33.9752 4.73181ZM43.6949 15.8029L42.832 17.0351C42.6983 17.226 42.646 17.4622 42.6864 17.6918C42.7268 17.9214 42.8568 18.1255 43.0476 18.2592C43.1951 18.3627 43.371 18.4182 43.5512 18.418C43.6926 18.4183 43.832 18.3843 43.9575 18.319C44.0829 18.2537 44.1907 18.159 44.2717 18.043L45.553 16.214C45.6867 16.023 45.739 15.7868 45.6986 15.5572C45.6582 15.3277 45.5282 15.1236 45.3374 14.9898C44.9345 14.7079 44.8362 14.1508 45.1186 13.7475C45.1254 13.7379 45.1318 13.7283 45.1397 13.7195C45.2184 13.6262 45.2769 13.5174 45.3113 13.4003C45.3457 13.2831 45.3554 13.16 45.3396 13.0389C45.324 12.9177 45.2833 12.8012 45.2201 12.6966C45.1569 12.5921 45.0726 12.5019 44.9726 12.4318L43.0444 11.0818C42.8534 10.9482 42.6171 10.8959 42.3876 10.9364C42.158 10.9769 41.954 11.107 41.8203 11.2979C41.5415 11.6953 41.6387 12.2436 42.036 12.5221L43.3324 13.4293C43.0678 14.2322 43.2055 15.1185 43.6949 15.8029ZM39.0308 35.5485C39.4482 35.5485 39.8359 35.7156 40.1225 36.0196C40.2827 36.1889 40.5035 36.2877 40.7364 36.2943C40.9693 36.3008 41.1954 36.2147 41.3648 36.0547C41.4488 35.9755 41.5163 35.8806 41.5636 35.7753C41.6108 35.67 41.6368 35.5564 41.6401 35.441C41.6435 35.3256 41.624 35.2107 41.5829 35.1029C41.5418 34.995 41.4798 34.8963 41.4006 34.8124C41.0955 34.4904 40.728 34.2337 40.3207 34.0581C39.9133 33.8824 39.4744 33.7914 39.0308 33.7906C37.2336 33.7906 35.7718 35.2527 35.7718 37.0499C35.7718 38.8466 37.2336 40.3088 39.0308 40.3088C39.9015 40.3088 40.7199 39.9701 41.3352 39.3543C41.4168 39.2727 41.4816 39.1758 41.5257 39.0692C41.5699 38.9626 41.5927 38.8483 41.5927 38.7329C41.5927 38.6175 41.5699 38.5032 41.5257 38.3966C41.4816 38.29 41.4168 38.1931 41.3352 38.1115C41.2536 38.0299 41.1567 37.9651 41.0501 37.9209C40.9434 37.8767 40.8292 37.854 40.7137 37.854C40.5983 37.854 40.484 37.8767 40.3774 37.9209C40.2708 37.9651 40.1739 38.0299 40.0923 38.1115C39.9532 38.2513 39.7878 38.3621 39.6055 38.4375C39.4233 38.5129 39.228 38.5515 39.0308 38.5509C38.2031 38.5509 37.5296 37.8776 37.5296 37.0499C37.5296 36.2218 38.2031 35.5485 39.0308 35.5485Z" fill="white"/>
<path d="M46.8564 30.858V23.8186C46.8564 21.4285 44.9118 19.484 42.5218 19.484H37.8575C38.1304 17.1274 37.3609 15.0547 35.7376 13.9181C34.3625 12.9554 32.5808 12.7828 30.7205 13.4319C28.9623 14.0457 27.3267 15.3357 26.1163 17.0642C25.5803 17.8292 25.1537 18.6404 24.8442 19.484H19.1222L31.4215 1.91916L48.4883 13.8691L45.8882 17.5829C45.8193 17.6773 45.77 17.7845 45.743 17.8982C45.7161 18.0119 45.7121 18.1298 45.7312 18.2451C45.7504 18.3604 45.7924 18.4707 45.8547 18.5695C45.917 18.6684 45.9984 18.7538 46.0941 18.8208C46.1898 18.8879 46.298 18.9351 46.4122 18.9599C46.5264 18.9846 46.6444 18.9863 46.7592 18.9649C46.8741 18.9435 46.9836 18.8994 47.0812 18.8352C47.1788 18.771 47.2627 18.688 47.3278 18.591L50.1623 14.5429C50.5894 13.9345 50.4416 13.0918 49.8322 12.6642L32.0954 0.245137C31.9506 0.142941 31.787 0.0704939 31.614 0.0319922C31.441 -0.00650947 31.2621 -0.0103 31.0876 0.0208403C30.913 0.0511668 30.7462 0.115761 30.5967 0.210896C30.4472 0.306031 30.318 0.429825 30.2166 0.575137L26.1484 6.38553V2.88186C26.1484 2.13795 25.5432 1.53279 24.7993 1.53279H3.7186C2.97469 1.53279 2.36954 2.13795 2.36954 2.88186V7.69334C2.36954 7.92644 2.46213 8.14999 2.62696 8.31482C2.79179 8.47965 3.01534 8.57225 3.24844 8.57225C3.73407 8.57225 4.12735 8.17908 4.12735 7.69334V3.29107H6.67383V19.4836H4.33489C4.26575 19.4836 4.19661 19.4853 4.12747 19.4886V11.209C4.12747 10.9759 4.03487 10.7523 3.87004 10.5875C3.70521 10.4227 3.48166 10.3301 3.24856 10.3301C3.01546 10.3301 2.79191 10.4227 2.62708 10.5875C2.46225 10.7523 2.36965 10.9759 2.36965 11.209V19.9555C0.964575 20.6733 0.00012207 22.1354 0.00012207 23.8186V50.2795C0.00012207 52.6695 1.94473 54.6143 4.33465 54.6143H10.8972C11.3829 54.6143 11.7761 54.221 11.7761 53.7354C11.7761 53.5023 11.6835 53.2787 11.5186 53.1139C11.3538 52.9491 11.1303 52.8565 10.8972 52.8565H4.33465C2.91375 52.8565 1.75793 51.7004 1.75793 50.2795V23.8186C1.75793 22.6924 2.48391 21.733 3.49196 21.3833C3.51434 21.3769 3.53684 21.3696 3.55829 21.3613C3.80957 21.2816 4.07163 21.2412 4.33524 21.2414H42.5218C43.9427 21.2414 45.099 22.3977 45.099 23.8186V30.7363H38.8065C35.3257 30.7363 32.4936 33.568 32.4936 37.0493C32.4936 40.5301 35.3257 43.3619 38.8065 43.3619H45.099V50.2795C45.099 51.7005 43.9427 52.8565 42.5218 52.8565H35.8059C35.5728 52.8565 35.3493 52.9491 35.1845 53.1139C35.0196 53.2787 34.927 53.5023 34.927 53.7354C34.927 54.221 35.3202 54.6143 35.8059 54.6143H42.5218C44.9118 54.6143 46.8568 52.6695 46.8568 50.2795V43.2401C48.8453 42.7681 50.329 40.9774 50.329 38.8469V35.2516C50.3285 33.1208 48.8449 31.3301 46.8564 30.858ZM27.5562 18.0732C29.5607 15.2103 32.7788 13.9928 34.7297 15.3582C35.8535 16.1451 36.3484 17.6891 36.0852 19.4836H26.7441C26.9715 18.9898 27.2433 18.5178 27.5562 18.0732ZM24.3907 8.89592L16.9767 19.484H12.6458V3.29061H24.3907V8.89592ZM8.43165 3.29061H10.888V19.4836H8.43176L8.43165 3.29061ZM48.5707 38.8465C48.5707 40.3672 47.3338 41.6041 45.8132 41.6041H38.8065C36.2948 41.6041 34.2515 39.5606 34.2515 37.0488C34.2515 34.5375 36.2948 32.4941 38.8065 32.4941H45.8132C47.3338 32.4941 48.5706 33.731 48.5706 35.2516L48.5707 38.8465Z" fill="white"/>
<path d="M23.4279 38.7637C17.5731 38.7637 12.8096 43.5272 12.8096 49.3825C12.8096 55.2372 17.5731 60.0007 23.4279 60.0007C29.2832 60.0007 34.0466 55.2373 34.0466 49.3824C34.0466 43.5272 29.2832 38.7637 23.4279 38.7637ZM23.4279 58.2429C18.5423 58.2429 14.5674 54.2682 14.5674 49.3824C14.5674 44.4963 18.5423 40.5215 23.4279 40.5215C28.3141 40.5215 32.2888 44.4962 32.2888 49.3825C32.2888 54.2682 28.3141 58.2429 23.4279 58.2429Z" fill="white"/>
<path d="M24.1777 48.5032H22.6785C22.4661 48.503 22.2625 48.4185 22.1124 48.2684C21.9622 48.1182 21.8778 47.9146 21.8775 47.7023C21.8777 47.4899 21.9622 47.2863 22.1123 47.1361C22.2625 46.9859 22.4661 46.9014 22.6785 46.9012H25.5472C26.0326 46.9012 26.4261 46.5074 26.4261 46.0223C26.4261 45.5371 26.0326 45.1434 25.5472 45.1434H24.4684V44.4004C24.4684 43.9152 24.0747 43.5215 23.5895 43.5215C23.1043 43.5215 22.7106 43.9152 22.7106 44.4004V45.1434H22.6785C21.2677 45.1434 20.1197 46.2914 20.1197 47.7023C20.1197 49.1131 21.2677 50.2612 22.6785 50.2612H24.1777C24.3899 50.2613 24.5935 50.3457 24.7436 50.4958C24.8937 50.646 24.9781 50.8495 24.9783 51.0618C24.9783 51.5036 24.6195 51.8629 24.1777 51.8629H21.3089C20.8232 51.8629 20.43 52.2565 20.43 52.7418C20.43 53.2271 20.8232 53.6207 21.3089 53.6207H22.7105V54.3637C22.7105 54.5968 22.8031 54.8203 22.9679 54.9852C23.1327 55.15 23.3563 55.2426 23.5894 55.2426C23.8225 55.2426 24.046 55.15 24.2109 54.9852C24.3757 54.8203 24.4683 54.5968 24.4683 54.3637V53.6042C25.7428 53.4591 26.7366 52.3746 26.7366 51.0618C26.7361 49.6509 25.5885 48.5032 24.1777 48.5032Z" fill="white"/>
</g>
<defs>
<clipPath id="clip0_519_6953">
<rect width="60" height="60" fill="white"/>
</clipPath>
</defs>
</svg>
