<svg width="60" height="60" viewBox="0 0 60 60" fill="none" xmlns="http://www.w3.org/2000/svg">
<path d="M30 12.5C20.35 12.5 12.5 20.35 12.5 30C12.5 39.65 20.35 47.5 30 47.5C39.65 47.5 47.5 39.65 47.5 30C47.5 20.35 39.65 12.5 30 12.5ZM30 45C21.7288 45 15 38.2713 15 30C15 21.7288 21.7288 15 30 15C38.2713 15 45 21.7288 45 30C45 38.2713 38.2713 45 30 45Z" fill="white"/>
<path d="M36.6162 24.1161L27.5 33.2323L23.3825 29.1161C23.1481 28.8817 22.8302 28.75 22.4987 28.75C22.1672 28.75 21.8493 28.8817 21.615 29.1161C21.3806 29.3504 21.2489 29.6683 21.2489 29.9998C21.2489 30.3313 21.3806 30.6492 21.615 30.8836L26.6162 35.8836C26.8506 36.1179 27.1685 36.2495 27.5 36.2495C27.8314 36.2495 28.1493 36.1179 28.3837 35.8836L38.3837 25.8836C38.6181 25.6492 38.7498 25.3313 38.7498 24.9998C38.7498 24.6683 38.6181 24.3504 38.3837 24.1161C38.1493 23.8817 37.8314 23.75 37.5 23.75C37.1685 23.75 36.8506 23.8817 36.6162 24.1161Z" fill="white"/>
<path d="M54.8375 25.9337C54.3225 25.5524 54.1625 24.7987 54.5037 24.2562C55.725 22.3137 57.4987 18.2337 51.3912 16.7374C50.7687 16.5849 50.3075 15.9412 50.44 15.3162C51.0262 12.5737 50.205 8.59119 44.685 9.56119C44.0562 9.67119 43.3875 9.23869 43.2637 8.60994C42.85 6.50744 41.0675 2.24869 35.7462 5.49619C35.1987 5.82994 34.3262 5.64869 34.0687 5.16119C33.2425 3.59994 29.6237 -6.24657e-05 25.9312 5.16119C25.5587 5.68244 24.7025 5.81619 24.2537 5.49494C21.8312 3.75994 17.9175 3.32619 16.735 8.60744C16.5987 9.21369 15.9537 9.67869 15.3125 9.55744C13.195 9.15494 8.54748 9.28744 9.56123 15.3124C9.66748 15.9437 9.24373 16.6399 8.61123 16.7349C6.14498 17.1037 2.34248 19.0849 5.49623 24.2524C5.82998 24.7987 5.73373 25.6412 5.16248 25.9299C2.97373 27.0362 0.467479 30.9712 5.16248 34.0712C5.69623 34.4237 5.82998 35.1824 5.49623 35.7287C2.34248 40.8962 6.14498 42.8762 8.61123 43.2462C9.24498 43.3412 9.66748 44.0374 9.56123 44.6687C8.54748 50.6937 13.195 50.8262 15.315 50.4224C15.9562 50.2999 16.6012 50.7662 16.7375 51.3724C17.92 56.6549 21.8337 56.2199 24.2562 54.4849C24.705 54.1637 25.5612 54.2974 25.9337 54.8187C29.6262 59.9812 33.245 56.3812 34.0712 54.8187C34.3287 54.3324 35.2012 54.1499 35.7487 54.4837C41.07 57.7312 42.8525 53.4724 43.2662 51.3699C43.39 50.7412 44.0587 50.3087 44.6875 50.4187C50.2075 51.3887 51.0275 47.4062 50.4425 44.6637C50.3087 44.0387 50.7712 43.3949 51.3937 43.2424C57.5025 41.7462 55.7287 37.6662 54.5062 35.7237C54.165 35.1812 54.3125 34.4112 54.8375 34.0487C56.47 32.9199 60 29.7537 54.8375 25.9337ZM53.0525 38.3887C53.4775 39.0724 53.215 40.0124 52.2475 40.3312C50.475 40.9162 47.2087 41.3974 48.08 46.5712C48.2462 47.5549 47.72 48.1437 46.5925 48.0574C44.8775 47.9262 41.3462 47.2324 40.355 52.2262C40.1587 53.2124 39.1925 53.4262 38.4125 53.0324C35.0475 51.3337 33.7012 51.1162 31.0537 54.4962C30.5475 55.1424 29.4925 55.1149 28.95 54.4962C27.5275 52.8749 25.9162 50.3824 21.59 53.0337C20.8375 53.4949 19.98 53.1387 19.6475 52.2287C18.7837 49.8587 18.5287 47.3324 13.4087 48.0612C12.6187 48.1737 11.7812 47.6387 11.9225 46.5749C12.1912 44.5399 12.5 41.2724 7.75248 40.3349C7.01998 40.1899 6.44748 39.2124 6.94748 38.3924C8.84373 35.2912 8.58123 33.3512 5.45623 31.0199C5.10373 30.7574 4.52998 29.6287 5.48373 28.9462C8.52748 26.7687 8.84373 24.6899 6.94748 21.5874C6.44623 20.7674 7.01998 19.7887 7.75248 19.6449C12.5 18.7074 12.1912 15.4399 11.9225 13.4049C11.7812 12.3412 12.62 11.8062 13.4087 11.9187C18.5287 12.6462 18.7837 10.1212 19.6475 7.75119C19.9787 6.83994 20.8375 6.48494 21.59 6.94619C25.9175 9.59744 27.5287 7.10494 28.95 5.48369C29.4925 4.86494 30.5462 4.83744 31.0537 5.48369C33.7012 8.86369 35.0475 8.64619 38.4125 6.94744C39.1925 6.55369 40.1587 6.76744 40.355 7.75369C41.3462 12.7474 44.8775 12.0537 46.5925 11.9224C47.7212 11.8362 48.2462 12.4249 48.08 13.4087C47.2087 18.5837 50.475 19.0637 52.2475 19.6487C53.215 19.9674 53.4775 20.9087 53.0525 21.5912C50.2725 26.0562 53.21 27.8312 54.5162 28.9512C55.0262 29.3887 55.32 30.4224 54.6337 30.9574C53.0725 32.0374 50.2725 33.9237 53.0525 38.3887Z" fill="white"/>
</svg>
