<svg width="815" height="108" viewBox="0 0 815 108" fill="none" xmlns="http://www.w3.org/2000/svg">
<path d="M401.119 80.1914H388.251L383.787 90H371.904L394.087 42.0117H409.134L416.623 90H402.455L401.119 80.1914ZM400.275 70.2773L398.341 56.3906L392.013 70.2773H400.275Z" fill="#1E65B8"/>
<path d="M420.138 90L426.115 54.2461H446.646C454.216 54.2461 458.001 56.9883 458.001 62.4727C458.001 67.7227 454.744 70.6992 448.228 71.4023C451.58 72.0586 453.923 72.9961 455.259 74.2148C456.595 75.4336 457.263 77.0859 457.263 79.1719C457.263 82.5234 456.021 85.1719 453.537 87.1172C451.052 89.0391 447.267 90 442.181 90H420.138ZM437.048 68.7305H441.689C444.408 68.7305 445.767 67.418 445.767 64.793C445.767 63.6914 445.521 62.9062 445.029 62.4375C444.537 61.9687 443.658 61.7344 442.392 61.7344H438.208L437.048 68.7305ZM434.763 82.2305H439.439C442.791 82.2305 444.466 80.5664 444.466 77.2383C444.466 76.0195 444.103 75.1992 443.376 74.7773C442.673 74.3555 441.49 74.1445 439.826 74.1445H436.134L434.763 82.2305Z" fill="#1E65B8"/>
<path d="M466.017 90L470.552 62.8945H460.814L462.255 54.2461H495.126L493.65 62.8945H484.333L479.798 90H466.017Z" fill="#1E65B8"/>
<path d="M511.158 90.8437C506.212 90.8437 502.052 89.3789 498.677 86.4492C495.326 83.4961 493.65 79.4766 493.65 74.3906C493.65 68.2734 495.595 63.2461 499.486 59.3086C503.4 55.3711 508.333 53.4023 514.287 53.4023C519.724 53.4023 524.037 54.9492 527.224 58.043C530.435 61.1133 532.041 64.9102 532.041 69.4336C532.041 76.1602 529.978 81.4102 525.853 85.1836C521.751 88.957 516.853 90.8437 511.158 90.8437ZM511.72 82.1953C514.181 82.1953 515.845 80.3672 516.712 76.7109C517.603 73.0547 518.048 69.9961 518.048 67.5352C518.048 63.7852 516.689 61.9102 513.97 61.9102C511.556 61.9102 509.88 63.7852 508.943 67.5352C508.029 71.2617 507.572 74.3086 507.572 76.6758C507.572 80.3555 508.955 82.1953 511.72 82.1953Z" fill="#1E65B8"/>
<path d="M572.224 78.9609L570.361 90H534.994L543.009 42.0117H577.498L575.74 52.5234H555.173L553.943 60.0469H571.205L569.447 70.4531H552.185L550.779 78.9609H572.224Z" fill="#1E65B8"/>
<path d="M606.537 66.3398L614.763 90H601.263L596.447 74.9531L591.208 80.0859L589.556 90H576.267L582.244 54.2461H595.533L593.248 68.0273L607.134 54.2461H619.263L606.537 66.3398Z" fill="#1E65B8"/>
<path d="M640.533 76.1836L651.255 78.8203C649.333 83.4141 646.814 86.6016 643.697 88.3828C640.58 90.1406 637.357 91.0195 634.029 91.0195C629.13 91.0195 625.123 89.4727 622.005 86.3789C618.912 83.2617 617.365 79.2656 617.365 74.3906C617.365 68.8359 619.193 63.9258 622.849 59.6602C626.529 55.3945 631.392 53.2617 637.439 53.2617C641.822 53.2617 645.537 54.5859 648.583 57.2344C651.63 59.8594 653.154 63.2461 653.154 67.3945L641.095 68.8008C641.095 64.957 639.794 63.0352 637.193 63.0352C634.966 63.0352 633.384 64.6055 632.447 67.7461C631.509 70.8867 631.041 73.6289 631.041 75.9727C631.041 79.4414 632.353 81.1758 634.978 81.1758C637.556 81.1758 639.408 79.5117 640.533 76.1836Z" fill="#1E65B8"/>
<path d="M654.525 90L660.501 54.2461H693.9L687.923 90H674.142L678.748 62.4023H672.912L668.306 90H654.525Z" fill="#1E65B8"/>
<path d="M734.4 74.6719H709.931C709.814 75.6328 709.755 76.3477 709.755 76.8164C709.755 78.3633 710.248 79.5703 711.232 80.4375C712.24 81.3047 713.505 81.7383 715.029 81.7383C717.912 81.7383 719.951 80.25 721.146 77.2734L733.099 79.207C731.552 82.6758 729.044 85.4883 725.576 87.6445C722.13 89.7773 718.298 90.8437 714.08 90.8437C708.783 90.8437 704.482 89.3437 701.177 86.3437C697.896 83.3203 696.255 79.207 696.255 74.0039C696.255 68.3555 698.201 63.5156 702.091 59.4844C705.982 55.4297 711.068 53.4023 717.349 53.4023C722.669 53.4023 726.9 54.9727 730.041 58.1133C733.205 61.2539 734.787 65.4258 734.787 70.6289C734.787 71.8008 734.658 73.1484 734.4 74.6719ZM721.603 67.8164C721.72 67.0898 721.779 66.5273 721.779 66.1289C721.779 64.8633 721.38 63.7617 720.583 62.8242C719.81 61.8867 718.72 61.418 717.314 61.418C715.814 61.418 714.455 61.9922 713.236 63.1406C712.017 64.2656 711.267 65.8242 710.986 67.8164H721.603Z" fill="#1E65B8"/>
<path d="M743.119 54.9492H755.775L754.826 60.6445C756.466 57.8555 758.072 56.0508 759.642 55.2305C761.236 54.3867 762.97 53.9648 764.845 53.9648C768.501 53.9648 771.443 55.3359 773.669 58.0781C775.896 60.7969 777.009 64.4766 777.009 69.1172C777.009 74.7656 775.474 79.875 772.404 84.4453C769.333 88.9922 765.267 91.2656 760.205 91.2656C756.244 91.2656 753.291 89.6016 751.345 86.2734L748.779 101.742H735.279L743.119 54.9492ZM754.474 67.7109C753.443 73.2656 752.927 76.8281 752.927 78.3984C752.927 79.6641 753.244 80.6953 753.876 81.4922C754.533 82.2891 755.447 82.6875 756.619 82.6875C758.001 82.6875 759.103 82.1016 759.923 80.9297C760.744 79.7578 761.458 77.6953 762.068 74.7422C762.677 71.7656 762.982 69.5625 762.982 68.1328C762.982 64.6406 761.693 62.8945 759.115 62.8945C756.888 62.8945 755.341 64.5 754.474 67.7109Z" fill="#1E65B8"/>
<path d="M784.955 90L789.49 62.8945H779.751L781.193 54.2461H814.064L812.587 62.8945H803.271L798.736 90H784.955Z" fill="#1E65B8"/>
<path d="M0 108L108 0H136.8L28.8 108H0Z" fill="#1E65B8"/>
<path d="M176.4 0H147.6L39.6 108H338.4L352.692 90H86.4L176.4 0Z" fill="#1E65B8"/>
<path d="M219.6 0H190.8L108 82.8H136.8L194.4 25.2L201.6 50.4H183.6L162 72H205.2L208.8 82.8H237.6L219.6 0Z" fill="#1E65B8"/>
<path d="M243 82.8L277.2 0H363.6L352.8 21.6H298.8L280.8 61.2H334.8L324 82.8H243Z" fill="#1E65B8"/>
<path d="M293.4 50.4L302.4 32.4H342L331.2 50.4H293.4Z" fill="#1E65B8"/>
</svg>
